<mxfile host="drawio-plugin" modified="2025-02-14T16:16:54.434Z" agent="Mozilla/5.0 (Windows NT 10.0; Win64; x64) AppleWebKit/537.36 (KHTML, like Gecko) Chrome/122.0.0.0 Safari/537.36" etag="73kJ4mVcWZpXYolzY7cC" version="22.1.22" type="embed">
  <diagram name="Page-1" id="7Sh1Q71iwAasNACV_Fdk">
    <mxGraphModel dx="2172" dy="537" grid="1" gridSize="10" guides="1" tooltips="1" connect="1" arrows="1" fold="1" page="1" pageScale="1" pageWidth="1654" pageHeight="1169" math="0" shadow="0">
      <root>
        <mxCell id="TWPGk657dWVwOv0mLjbH-0" />
        <mxCell id="TWPGk657dWVwOv0mLjbH-1" parent="TWPGk657dWVwOv0mLjbH-0" />
        <mxCell id="TWPGk657dWVwOv0mLjbH-2" value="Client" style="swimlane;whiteSpace=wrap;html=1;fillColor=#fff2cc;strokeColor=#d6b656;" parent="TWPGk657dWVwOv0mLjbH-1" vertex="1">
          <mxGeometry x="-60" y="120" width="500" height="260" as="geometry" />
        </mxCell>
        <mxCell id="TWPGk657dWVwOv0mLjbH-3" value="Application" style="rounded=1;whiteSpace=wrap;html=1;fillColor=#fff2cc;strokeColor=#d6b656;" parent="TWPGk657dWVwOv0mLjbH-2" vertex="1">
          <mxGeometry x="120" y="160" width="120" height="60" as="geometry" />
        </mxCell>
        <mxCell id="TWPGk657dWVwOv0mLjbH-12" value="Hardware Reader&lt;br&gt;(Card, SAM, HSM, etc.)" style="rounded=1;whiteSpace=wrap;html=1;fillColor=#f8cecc;strokeColor=#b85450;" parent="TWPGk657dWVwOv0mLjbH-1" vertex="1">
          <mxGeometry x="-220" y="280" width="120" height="60" as="geometry" />
        </mxCell>
        <mxCell id="TWPGk657dWVwOv0mLjbH-13" value="Server" style="swimlane;whiteSpace=wrap;html=1;startSize=23;fillColor=#fff2cc;strokeColor=#d6b656;" parent="TWPGk657dWVwOv0mLjbH-1" vertex="1">
          <mxGeometry x="520" y="120" width="500" height="260" as="geometry" />
        </mxCell>
        <mxCell id="TWPGk657dWVwOv0mLjbH-14" value="Application" style="rounded=1;whiteSpace=wrap;html=1;fillColor=#fff2cc;strokeColor=#d6b656;" parent="TWPGk657dWVwOv0mLjbH-13" vertex="1">
          <mxGeometry x="260" y="40" width="120" height="60" as="geometry" />
        </mxCell>
        <mxCell id="TWPGk657dWVwOv0mLjbH-15" value="Keyple" style="swimlane;whiteSpace=wrap;html=1;fillColor=#dae8fc;strokeColor=#6c8ebf;" parent="TWPGk657dWVwOv0mLjbH-13" vertex="1">
          <mxGeometry x="160" y="120" width="320" height="120" as="geometry" />
        </mxCell>
        <mxCell id="TWPGk657dWVwOv0mLjbH-16" value="Keyple:&lt;br&gt;- core services&lt;br&gt;- card extension" style="rounded=1;whiteSpace=wrap;html=1;fillColor=#dae8fc;strokeColor=#6c8ebf;" parent="TWPGk657dWVwOv0mLjbH-15" vertex="1">
          <mxGeometry x="180" y="40" width="120" height="60" as="geometry" />
        </mxCell>
        <mxCell id="TWPGk657dWVwOv0mLjbH-17" style="edgeStyle=none;rounded=0;orthogonalLoop=1;jettySize=auto;html=1;exitX=1;exitY=0.5;exitDx=0;exitDy=0;entryX=0;entryY=0.5;entryDx=0;entryDy=0;strokeWidth=1;endArrow=none;endFill=0;fillColor=#f8cecc;strokeColor=#b85450;" parent="TWPGk657dWVwOv0mLjbH-15" source="TWPGk657dWVwOv0mLjbH-18" target="TWPGk657dWVwOv0mLjbH-16" edge="1">
          <mxGeometry relative="1" as="geometry" />
        </mxCell>
        <mxCell id="TWPGk657dWVwOv0mLjbH-18" value="&lt;b&gt;Keyple Distributed&lt;/b&gt;&lt;br&gt;(&lt;b&gt;remote&lt;/b&gt; components)" style="rounded=1;whiteSpace=wrap;html=1;fillColor=#dae8fc;strokeColor=#6c8ebf;" parent="TWPGk657dWVwOv0mLjbH-15" vertex="1">
          <mxGeometry x="20" y="40" width="120" height="60" as="geometry" />
        </mxCell>
        <mxCell id="TWPGk657dWVwOv0mLjbH-20" value="Network Endpoint" style="rounded=1;whiteSpace=wrap;html=1;fillColor=#fff2cc;strokeColor=#d6b656;" parent="TWPGk657dWVwOv0mLjbH-13" vertex="1">
          <mxGeometry x="20" y="160" width="120" height="60" as="geometry" />
        </mxCell>
        <mxCell id="TWPGk657dWVwOv0mLjbH-21" style="edgeStyle=none;rounded=0;orthogonalLoop=1;jettySize=auto;html=1;exitX=0.5;exitY=0;exitDx=0;exitDy=0;entryX=0.25;entryY=1;entryDx=0;entryDy=0;strokeWidth=1;endArrow=none;endFill=0;fillColor=#f8cecc;strokeColor=#b85450;" parent="TWPGk657dWVwOv0mLjbH-13" source="TWPGk657dWVwOv0mLjbH-18" target="TWPGk657dWVwOv0mLjbH-14" edge="1">
          <mxGeometry relative="1" as="geometry" />
        </mxCell>
        <mxCell id="TWPGk657dWVwOv0mLjbH-22" style="edgeStyle=none;rounded=0;orthogonalLoop=1;jettySize=auto;html=1;exitX=0.75;exitY=1;exitDx=0;exitDy=0;entryX=0.5;entryY=0;entryDx=0;entryDy=0;strokeWidth=1;endArrow=none;endFill=0;fillColor=#f8cecc;strokeColor=#b85450;" parent="TWPGk657dWVwOv0mLjbH-13" source="TWPGk657dWVwOv0mLjbH-14" target="TWPGk657dWVwOv0mLjbH-16" edge="1">
          <mxGeometry relative="1" as="geometry" />
        </mxCell>
        <mxCell id="TWPGk657dWVwOv0mLjbH-19" style="edgeStyle=none;rounded=0;orthogonalLoop=1;jettySize=auto;html=1;exitX=1;exitY=0.5;exitDx=0;exitDy=0;entryX=0;entryY=0.5;entryDx=0;entryDy=0;strokeWidth=1;endArrow=none;endFill=0;fillColor=#f8cecc;strokeColor=#b85450;" parent="TWPGk657dWVwOv0mLjbH-13" source="TWPGk657dWVwOv0mLjbH-20" target="TWPGk657dWVwOv0mLjbH-18" edge="1">
          <mxGeometry relative="1" as="geometry" />
        </mxCell>
        <mxCell id="TWPGk657dWVwOv0mLjbH-23" style="edgeStyle=orthogonalEdgeStyle;rounded=0;orthogonalLoop=1;jettySize=auto;html=1;exitX=0;exitY=0.5;exitDx=0;exitDy=0;entryX=1;entryY=0.5;entryDx=0;entryDy=0;endArrow=none;endFill=0;fillColor=#f8cecc;strokeColor=#b85450;strokeWidth=1;" parent="TWPGk657dWVwOv0mLjbH-1" source="TWPGk657dWVwOv0mLjbH-3" target="TWPGk657dWVwOv0mLjbH-12" edge="1">
          <mxGeometry relative="1" as="geometry">
            <mxPoint x="320" y="310" as="sourcePoint" />
          </mxGeometry>
        </mxCell>
        <mxCell id="TWPGk657dWVwOv0mLjbH-24" style="edgeStyle=none;rounded=0;orthogonalLoop=1;jettySize=auto;html=1;exitX=1;exitY=0.5;exitDx=0;exitDy=0;entryX=0;entryY=0.5;entryDx=0;entryDy=0;strokeWidth=2;endArrow=none;endFill=0;fillColor=#f8cecc;strokeColor=#b85450;" parent="TWPGk657dWVwOv0mLjbH-1" source="TWPGk657dWVwOv0mLjbH-3" target="TWPGk657dWVwOv0mLjbH-20" edge="1">
          <mxGeometry relative="1" as="geometry">
            <mxPoint x="760" y="310" as="sourcePoint" />
          </mxGeometry>
        </mxCell>
        <mxCell id="P3IS_tWR3allALVAkKif-0" value="Server&lt;br&gt;JSON API" style="text;html=1;align=center;verticalAlign=middle;resizable=0;points=[];autosize=1;strokeColor=none;fillColor=none;fontStyle=1" parent="TWPGk657dWVwOv0mLjbH-1" vertex="1">
          <mxGeometry x="440" y="270" width="80" height="40" as="geometry" />
        </mxCell>
      </root>
    </mxGraphModel>
  </diagram>
</mxfile>
